<?xml version="1.0" encoding="UTF-8"?>
<svg width="256" height="256" viewBox="0 0 256 256" fill="none" xmlns="http://www.w3.org/2000/svg">
  <defs>
    <linearGradient id="g" x1="0" y1="0" x2="256" y2="256" gradientUnits="userSpaceOnUse">
      <stop stop-color="#34d399"/>
      <stop offset="1" stop-color="#14b8a6"/>
    </linearGradient>
    <filter id="s" x="-20%" y="-20%" width="140%" height="140%">
      <feDropShadow dx="0" dy="6" stdDeviation="10" flood-color="#0f766e" flood-opacity="0.35"/>
    </filter>
  </defs>
  <rect x="20" y="20" width="216" height="216" rx="56" fill="url(#g)" filter="url(#s)"/>
  <g transform="translate(28, 28)">
    <path d="M56 132c18 0 34-8 34-24 0-28-56-18-56-52 0-18 16-30 38-30 12 0 24 3 34 10l-10 18c-8-5-16-8-24-8-10 0-16 4-16 10 0 22 56 14 56 52 0 22-20 38-52 38-16 0-30-4-42-12l10-18c10 8 20 12 28 12z" fill="#ffffff"/>
    <path d="M146 54h22l-40 76h-22l16-30-26-46h22l14 26 14-26z" fill="#ffffff"/>
  </g>
</svg>
